<svg xmlns="http://www.w3.org/2000/svg" xmlns:xlink="http://www.w3.org/1999/xlink" id="Layer_1" x="0" y="0" version="1.1" viewBox="0 0 167.22 46.07" style="enable-background:new 0 0 167.22 46.07" xml:space="preserve"><style type="text/css">.st0{fill:#fff}.st1{fill:#bcbec0}</style><g><path d="M1.7,11.04h4.22v17.25H1.7V11.04z" class="st0"/><path d="M13.43,15.87v1.47c0.82-1.25,2.05-1.76,3.55-1.76c3.02,0,4.85,1.95,4.85,5.14v7.57h-4.2v-6.83 c0-1.42-0.7-2.22-1.98-2.22c-1.21,0-2.03,0.99-2.03,2.51v6.54h-4.2V15.87H13.43z" class="st0"/><path d="M23.37,15.87h1.71v-3.35h4.08v3.35h2.63v3.26h-2.63v4.27c0,1.06,0.58,1.52,1.35,1.52 c0.51,0,1.11-0.1,1.62-0.46V28c-0.65,0.31-1.62,0.58-2.82,0.58c-2.68,0-4.34-1.62-4.34-4.49v-4.97h-1.59V15.87z" class="st0"/><path d="M37.28,23.08c0.19,1.4,1.54,2,2.97,2c1.33,0,2.34-0.58,2.94-1.16l2.12,2.65c-1.64,1.47-3.3,2-5.38,2 c-4.25,0-6.97-2.82-6.97-6.49c0-3.67,2.77-6.51,6.46-6.51c3.52,0,5.96,2.32,5.96,5.72c0,0.65-0.12,1.4-0.24,1.78H37.28z M37.21,20.67h4.12v-0.02c-0.05-1.06-0.92-1.74-2-1.74C38.25,18.91,37.28,19.56,37.21,20.67z" class="st0"/><path d="M56.03,19.66c-0.19-0.1-0.53-0.14-0.94-0.14c-2.1,0-3.3,1.64-3.3,4.22v4.56h-4.2V15.87h4.17v2.12 c0.63-1.5,1.88-2.41,3.5-2.41c0.29,0,0.55,0.02,0.77,0.1V19.66z" class="st0"/><path d="M56,15.87h4.2l2.65,7.67l2.65-7.67h4.2l-4.99,12.42H61L56,15.87z" class="st0"/><path d="M73.18,10.22c1.28,0,2.27,0.92,2.27,2.17c0,1.25-0.99,2.17-2.27,2.17s-2.24-0.92-2.24-2.17 C70.93,11.14,71.9,10.22,73.18,10.22z M71.1,15.87h4.2v12.42h-4.2V15.87z" class="st0"/><path d="M81.84,23.08c0.19,1.4,1.54,2,2.97,2c1.33,0,2.34-0.58,2.94-1.16l2.12,2.65c-1.64,1.47-3.3,2-5.38,2 c-4.25,0-6.97-2.82-6.97-6.49c0-3.67,2.77-6.51,6.46-6.51c3.52,0,5.96,2.32,5.96,5.72c0,0.65-0.12,1.4-0.24,1.78H81.84z M81.76,20.67h4.12v-0.02c-0.05-1.06-0.92-1.74-2-1.74S81.84,19.56,81.76,20.67z" class="st0"/><path d="M90.45,15.87h4l2.15,7.65l2.39-7.65h2.94l2.39,7.65l2.15-7.65h4l-4.15,12.42h-3.74l-2.12-6.66l-2.12,6.66H94.6 L90.45,15.87z" class="st0"/><path d="M119.44,23.49c0-1.13-1.3-1.33-3.71-2.39c-2.44-1.06-4.37-2.24-4.37-5.02c0-3.16,2.65-5.33,6.13-5.33 c2.61,0,4.68,1.23,5.81,3.21l-3.06,2.36c-0.68-1.11-1.62-1.78-2.8-1.78c-0.94,0-1.86,0.48-1.86,1.45c0,0.92,1.4,1.3,3.04,2 c2.82,1.21,5.04,2.32,5.04,5.38c0,2.8-2.39,5.23-6.32,5.23c-2.61,0-5.21-1.23-6.49-3.52l2.92-2.46c0.72,1.13,2,2.17,3.57,2.17 C118.53,24.79,119.44,24.33,119.44,23.49z" class="st0"/><path d="M128.2,15.87l2.6,7.65l2.68-7.65h4.22l-5.31,13.03c-1.42,3.47-3.16,4.51-5.55,4.51 c-1.01,0-1.88-0.29-2.39-0.53v-3.4c0.63,0.29,1.28,0.39,1.74,0.39c0.94,0,1.98-0.19,2.48-2.1l-4.8-11.89H128.2z" class="st0"/><path d="M143.11,15.87v1.47c0.82-1.25,2.05-1.76,3.55-1.76c3.01,0,4.85,1.95,4.85,5.14v7.57h-4.2v-6.83 c0-1.42-0.7-2.22-1.98-2.22c-1.21,0-2.03,0.99-2.03,2.51v6.54h-4.2V15.87H143.11z" class="st0"/><path d="M162.84,23.51l2.65,2.39c-1.16,1.62-3.04,2.68-5.28,2.68c-3.93,0-6.71-2.85-6.71-6.51 c0-3.67,2.77-6.49,6.68-6.49c2.29,0,4.08,0.94,5.33,2.89l-2.77,2.39c-0.58-1.09-1.4-1.62-2.44-1.62c-1.5,0-2.56,1.18-2.56,2.82 c0,1.66,1.06,2.85,2.61,2.85C161.42,24.91,162.11,24.36,162.84,23.51z" class="st0"/><g><path d="M2.31,41.94c0.67,0.52,1.48,0.78,2.42,0.78c0.35,0,0.64-0.07,0.85-0.2c0.21-0.13,0.32-0.32,0.32-0.55 c0-0.09-0.01-0.17-0.04-0.24c-0.03-0.07-0.08-0.13-0.17-0.19c-0.08-0.05-0.15-0.09-0.21-0.12c-0.06-0.03-0.16-0.06-0.31-0.09 c-0.15-0.03-0.25-0.05-0.32-0.07c-0.07-0.01-0.19-0.03-0.38-0.06c-0.21-0.03-0.39-0.06-0.53-0.09c-0.15-0.03-0.32-0.08-0.54-0.14 c-0.21-0.06-0.39-0.13-0.54-0.22c-0.15-0.09-0.29-0.2-0.43-0.32C2.3,40.3,2.2,40.14,2.13,39.95c-0.07-0.19-0.1-0.4-0.1-0.64 c0-0.63,0.24-1.12,0.72-1.45s1.13-0.5,1.95-0.5c0.89,0,1.72,0.21,2.49,0.62l-0.56,1.07c-0.63-0.34-1.3-0.51-2.01-0.51 c-0.37,0-0.66,0.06-0.85,0.19c-0.2,0.12-0.29,0.29-0.29,0.51c0,0.13,0.03,0.23,0.09,0.32c0.06,0.09,0.16,0.16,0.3,0.21 c0.14,0.05,0.27,0.1,0.38,0.12c0.12,0.03,0.28,0.06,0.48,0.09c0.78,0.13,1.34,0.27,1.66,0.42c0.65,0.3,0.97,0.79,0.97,1.47 c0,0.66-0.25,1.16-0.75,1.51c-0.5,0.35-1.17,0.53-2.03,0.53c-0.56,0-1.08-0.08-1.58-0.25c-0.49-0.16-0.91-0.38-1.26-0.64 L2.31,41.94z" class="st0"/><path d="M8.1,37.67c0-0.23,0.08-0.42,0.24-0.58c0.16-0.16,0.36-0.24,0.59-0.24c0.23,0,0.43,0.08,0.59,0.24 s0.24,0.35,0.24,0.58c0,0.23-0.08,0.43-0.24,0.59c-0.16,0.16-0.35,0.25-0.59,0.25c-0.23,0-0.43-0.08-0.59-0.24 C8.18,38.11,8.1,37.91,8.1,37.67z M8.24,43.83v-4.78h1.38v4.78H8.24z" class="st0"/><path d="M12.08,39.05v0.56c0.37-0.44,0.85-0.66,1.46-0.66c0.65,0,1.12,0.24,1.43,0.72c0.41-0.48,0.96-0.72,1.63-0.72 c0.56,0,1.02,0.17,1.37,0.51c0.35,0.34,0.53,0.79,0.53,1.35v3.01h-1.36v-2.74c0-0.28-0.08-0.51-0.24-0.68 c-0.16-0.17-0.36-0.26-0.62-0.26c-0.28,0-0.51,0.1-0.69,0.31c-0.18,0.21-0.28,0.48-0.28,0.81v2.56h-1.36v-2.71 c0-0.3-0.08-0.53-0.23-0.71c-0.15-0.18-0.36-0.27-0.62-0.27c-0.28,0-0.52,0.1-0.7,0.31c-0.18,0.21-0.28,0.48-0.28,0.82v2.55h-1.37 v-4.78H12.08z" class="st0"/><path d="M19.61,39.05h1.32v0.6c0.41-0.45,0.93-0.67,1.56-0.67c0.65,0,1.19,0.24,1.63,0.71 c0.43,0.47,0.65,1.07,0.65,1.78c0,0.71-0.22,1.3-0.66,1.77c-0.44,0.47-0.98,0.7-1.63,0.7c-0.61,0-1.12-0.21-1.53-0.64v2.44h-1.34 V39.05z M20.91,41.45c0,0.37,0.12,0.69,0.37,0.94c0.24,0.25,0.55,0.38,0.91,0.38c0.35,0,0.65-0.13,0.89-0.38 c0.24-0.25,0.36-0.56,0.36-0.93c0-0.37-0.12-0.68-0.36-0.94c-0.24-0.25-0.53-0.38-0.89-0.38c-0.36,0-0.66,0.13-0.91,0.38 C21.03,40.78,20.91,41.09,20.91,41.45z" class="st0"/><path d="M27.03,37.17v6.66h-1.38v-6.66H27.03z" class="st0"/><path d="M28.05,37.67c0-0.23,0.08-0.42,0.24-0.58s0.36-0.24,0.59-0.24c0.23,0,0.43,0.08,0.59,0.24 c0.16,0.16,0.24,0.35,0.24,0.58c0,0.23-0.08,0.43-0.24,0.59c-0.16,0.16-0.35,0.25-0.59,0.25c-0.23,0-0.43-0.08-0.59-0.24 C28.13,38.11,28.05,37.91,28.05,37.67z M28.19,43.83v-4.78h1.38v4.78H28.19z" class="st0"/><path d="M31.24,39.05v-0.43c0-0.54,0.17-0.97,0.51-1.29c0.34-0.31,0.81-0.47,1.4-0.47c0.46,0,0.85,0.06,1.15,0.18 v1.14c-0.24-0.09-0.53-0.13-0.85-0.13c-0.56,0-0.84,0.26-0.84,0.78v0.22h1.5v1.15h-1.5v3.63h-1.37V40.2h-0.89v-1.15H31.24z" class="st0"/><path d="M35.7,39.05l1.41,3.62l1.25-3.62h1.39l-1.71,4.63c-0.09,0.27-0.18,0.49-0.27,0.67 c-0.08,0.18-0.19,0.38-0.34,0.59c-0.14,0.21-0.29,0.38-0.46,0.51c-0.16,0.13-0.36,0.24-0.61,0.32c-0.24,0.09-0.51,0.13-0.81,0.13 c-0.35,0-0.72-0.07-1.11-0.22v-1.2c0.34,0.16,0.66,0.24,0.97,0.24c0.27,0,0.48-0.04,0.64-0.13c0.16-0.09,0.3-0.24,0.41-0.45 l-2.18-5.1H35.7z" class="st0"/><path d="M40.57,43.96c-0.02,0-0.04,0-0.06,0c-0.22,0-0.4-0.07-0.55-0.22c-0.15-0.15-0.23-0.32-0.23-0.53 c0-0.24,0.08-0.44,0.25-0.6c0.16-0.16,0.37-0.24,0.61-0.24c0.26,0,0.47,0.09,0.65,0.26c0.17,0.17,0.26,0.39,0.26,0.66 c0,0.36-0.15,0.75-0.44,1.18c-0.29,0.42-0.64,0.82-1.03,1.19l-0.29-0.28C40.14,44.83,40.42,44.36,40.57,43.96z" class="st0"/><path d="M45.19,38.3c0.62-0.62,1.41-0.93,2.35-0.93c0.68,0,1.28,0.17,1.81,0.5c0.53,0.34,0.91,0.79,1.15,1.35 l-1.22,0.62c-0.15-0.36-0.38-0.65-0.7-0.86c-0.31-0.22-0.67-0.32-1.07-0.32c-0.54,0-0.99,0.19-1.35,0.57 c-0.36,0.38-0.55,0.86-0.55,1.43c0,0.56,0.18,1.04,0.55,1.42c0.37,0.38,0.82,0.57,1.36,0.57c0.4,0,0.76-0.11,1.07-0.32 c0.32-0.22,0.55-0.5,0.69-0.86l1.25,0.56c-0.23,0.58-0.62,1.05-1.16,1.39c-0.54,0.35-1.16,0.52-1.85,0.52 c-0.94,0-1.73-0.31-2.35-0.93c-0.62-0.62-0.94-1.4-0.94-2.35S44.56,38.93,45.19,38.3z" class="st0"/><path d="M51.74,39.66c0.48-0.47,1.1-0.71,1.86-0.71c0.75,0,1.37,0.24,1.86,0.72c0.48,0.48,0.73,1.07,0.73,1.79 c0,0.72-0.24,1.31-0.73,1.78c-0.49,0.47-1.1,0.7-1.85,0.7s-1.37-0.23-1.86-0.7c-0.49-0.47-0.74-1.06-0.74-1.78 C51.01,40.73,51.25,40.13,51.74,39.66z M52.32,41.44c0,0.37,0.12,0.69,0.37,0.94c0.25,0.25,0.55,0.38,0.91,0.38 c0.37,0,0.67-0.12,0.92-0.38c0.24-0.25,0.37-0.56,0.37-0.94c0-0.37-0.12-0.69-0.36-0.94c-0.24-0.25-0.54-0.38-0.91-0.38 c-0.37,0-0.67,0.13-0.92,0.38C52.44,40.76,52.32,41.07,52.32,41.44z" class="st0"/><path d="M58.44,37.17v6.66h-1.38v-6.66H58.44z" class="st0"/><path d="M60.98,37.17v6.66H59.6v-6.66H60.98z" class="st0"/><path d="M61.87,41.43c0-0.72,0.22-1.32,0.66-1.79c0.44-0.47,0.99-0.7,1.67-0.7c0.61,0,1.13,0.24,1.54,0.71v-0.61H67 v4.78h-1.26v-0.6c-0.39,0.47-0.91,0.7-1.56,0.7c-0.67,0-1.22-0.23-1.66-0.7C62.09,42.76,61.87,42.16,61.87,41.43z M63.2,41.44 c0,0.37,0.12,0.68,0.36,0.93c0.24,0.25,0.54,0.38,0.9,0.38c0.36,0,0.66-0.13,0.9-0.38c0.24-0.26,0.36-0.57,0.36-0.94 c0-0.36-0.12-0.67-0.36-0.92c-0.24-0.25-0.54-0.38-0.89-0.38c-0.37,0-0.67,0.13-0.91,0.38C63.32,40.76,63.2,41.07,63.2,41.44z" class="st0"/><path d="M69.5,37.13v2.49c0.41-0.44,0.91-0.66,1.53-0.66c0.65,0,1.2,0.24,1.63,0.71c0.44,0.47,0.66,1.07,0.66,1.78 c0,0.71-0.22,1.3-0.65,1.77c-0.43,0.47-0.98,0.71-1.63,0.71c-0.62,0-1.14-0.22-1.56-0.67v0.57h-1.32v-6.69H69.5z M69.84,42.37 c0.24,0.25,0.54,0.38,0.9,0.38c0.35,0,0.64-0.12,0.87-0.38c0.23-0.25,0.35-0.56,0.35-0.93c0-0.37-0.12-0.68-0.36-0.93 c-0.24-0.25-0.53-0.38-0.88-0.38c-0.35,0-0.65,0.13-0.9,0.38c-0.24,0.25-0.37,0.56-0.37,0.93C69.47,41.82,69.59,42.13,69.84,42.37 z" class="st0"/><path d="M74.65,39.66c0.48-0.47,1.1-0.71,1.86-0.71c0.75,0,1.37,0.24,1.86,0.72c0.48,0.48,0.73,1.07,0.73,1.79 c0,0.72-0.24,1.31-0.73,1.78c-0.49,0.47-1.1,0.7-1.85,0.7c-0.75,0-1.37-0.23-1.86-0.7c-0.49-0.47-0.74-1.06-0.74-1.78 C73.92,40.73,74.16,40.13,74.65,39.66z M75.23,41.44c0,0.37,0.12,0.69,0.37,0.94c0.25,0.25,0.55,0.38,0.91,0.38 c0.37,0,0.67-0.12,0.92-0.38c0.24-0.25,0.37-0.56,0.37-0.94c0-0.37-0.12-0.69-0.36-0.94c-0.24-0.25-0.54-0.38-0.91-0.38 c-0.37,0-0.67,0.13-0.92,0.38C75.35,40.76,75.23,41.07,75.23,41.44z" class="st0"/><path d="M79.98,43.83v-4.78h1.3v0.57c0.29-0.45,0.73-0.67,1.32-0.67c0.2,0,0.4,0.03,0.59,0.1l-0.01,1.32 c-0.22-0.08-0.45-0.12-0.67-0.12c-0.37,0-0.66,0.11-0.87,0.34c-0.21,0.22-0.31,0.53-0.31,0.92v2.33H79.98z" class="st0"/><path d="M83.59,41.43c0-0.72,0.22-1.32,0.66-1.79c0.44-0.47,0.99-0.7,1.67-0.7c0.61,0,1.13,0.24,1.54,0.71v-0.61h1.26 v4.78h-1.26v-0.6c-0.39,0.47-0.91,0.7-1.56,0.7c-0.67,0-1.22-0.23-1.66-0.7C83.8,42.76,83.59,42.16,83.59,41.43z M84.92,41.44 c0,0.37,0.12,0.68,0.36,0.93c0.24,0.25,0.54,0.38,0.9,0.38c0.36,0,0.66-0.13,0.9-0.38c0.24-0.26,0.36-0.57,0.36-0.94 c0-0.36-0.12-0.67-0.36-0.92c-0.24-0.25-0.54-0.38-0.89-0.38c-0.37,0-0.67,0.13-0.91,0.38C85.04,40.76,84.92,41.07,84.92,41.44z" class="st0"/><path d="M89.5,39.05h0.78v-1.47h1.35v1.47h1.31v1.15h-1.31v1.83c0,0.25,0.05,0.43,0.15,0.54 c0.1,0.11,0.27,0.17,0.53,0.17c0.28,0,0.54-0.05,0.8-0.15v1.12c-0.37,0.15-0.76,0.22-1.17,0.22c-0.56,0-0.97-0.14-1.24-0.42 c-0.27-0.28-0.41-0.67-0.41-1.17V40.2H89.5V39.05z" class="st0"/><path d="M94.22,39.64c0.47-0.46,1.09-0.69,1.85-0.69c0.73,0,1.32,0.22,1.79,0.66c0.46,0.44,0.69,1.01,0.69,1.7 c0,0.18-0.01,0.34-0.03,0.47h-3.75c0.05,0.34,0.19,0.6,0.42,0.8c0.23,0.2,0.52,0.3,0.87,0.3c0.56,0,0.96-0.22,1.18-0.65l1.07,0.46 c-0.16,0.37-0.44,0.67-0.84,0.9c-0.4,0.22-0.87,0.34-1.4,0.34c-0.77,0-1.39-0.23-1.87-0.69c-0.47-0.46-0.71-1.06-0.71-1.79 C93.5,40.71,93.74,40.11,94.22,39.64z M94.78,41h2.49c-0.05-0.3-0.19-0.55-0.41-0.75c-0.22-0.19-0.49-0.29-0.81-0.29 c-0.31,0-0.58,0.09-0.82,0.28C95,40.44,94.85,40.69,94.78,41z" class="st0"/><path d="M99.96,43.96c-0.02,0-0.04,0-0.06,0c-0.22,0-0.4-0.07-0.55-0.22c-0.15-0.15-0.23-0.32-0.23-0.53 c0-0.24,0.08-0.44,0.25-0.6c0.16-0.16,0.37-0.24,0.61-0.24c0.26,0,0.47,0.09,0.65,0.26c0.17,0.17,0.26,0.39,0.26,0.66 c0,0.36-0.15,0.75-0.44,1.18c-0.29,0.42-0.64,0.82-1.03,1.19l-0.29-0.28C99.52,44.83,99.8,44.36,99.96,43.96z" class="st0"/><path d="M103.13,43.83l2.36-6.35h1.65l2.31,6.35h-1.49l-0.39-1.24h-2.53l-0.42,1.24H103.13z M105.41,41.42h1.81 l-0.9-2.72L105.41,41.42z" class="st0"/><path d="M110.23,42.27c0.24,0.16,0.54,0.31,0.89,0.43c0.35,0.12,0.69,0.18,1.01,0.18c0.25,0,0.45-0.04,0.62-0.11 c0.17-0.08,0.25-0.19,0.25-0.34c0-0.15-0.08-0.26-0.23-0.32c-0.15-0.06-0.42-0.12-0.82-0.19l-0.17-0.03 c-0.59-0.11-1.03-0.26-1.32-0.47c-0.29-0.2-0.44-0.52-0.44-0.96c0-0.47,0.18-0.85,0.55-1.11c0.37-0.27,0.89-0.4,1.56-0.4 c0.72,0,1.39,0.14,2.01,0.41l-0.35,1.02c-0.6-0.28-1.17-0.42-1.71-0.42c-0.51,0-0.77,0.15-0.77,0.44c0,0.18,0.14,0.31,0.43,0.39 c0.1,0.03,0.28,0.06,0.55,0.1l0.09,0.02c0.68,0.13,1.17,0.29,1.48,0.48c0.31,0.2,0.47,0.53,0.47,0.99c0,0.48-0.2,0.86-0.6,1.13 c-0.4,0.28-0.94,0.41-1.63,0.41c-0.92,0-1.71-0.22-2.35-0.66L110.23,42.27z" class="st0"/><path d="M115.29,42.27c0.24,0.16,0.54,0.31,0.89,0.43s0.69,0.18,1.01,0.18c0.25,0,0.45-0.04,0.62-0.11 c0.17-0.08,0.25-0.19,0.25-0.34c0-0.15-0.08-0.26-0.23-0.32c-0.15-0.06-0.42-0.12-0.82-0.19l-0.17-0.03 c-0.59-0.11-1.03-0.26-1.32-0.47c-0.29-0.2-0.44-0.52-0.44-0.96c0-0.47,0.18-0.85,0.55-1.11c0.37-0.27,0.89-0.4,1.56-0.4 c0.72,0,1.39,0.14,2.01,0.41l-0.35,1.02c-0.6-0.28-1.17-0.42-1.71-0.42c-0.51,0-0.77,0.15-0.77,0.44c0,0.18,0.14,0.31,0.43,0.39 c0.1,0.03,0.28,0.06,0.55,0.1l0.09,0.02c0.68,0.13,1.17,0.29,1.48,0.48c0.31,0.2,0.47,0.53,0.47,0.99c0,0.48-0.2,0.86-0.6,1.13 c-0.4,0.28-0.94,0.41-1.63,0.41c-0.92,0-1.71-0.22-2.35-0.66L115.29,42.27z" class="st0"/><path d="M120.71,39.64c0.47-0.46,1.09-0.69,1.85-0.69c0.73,0,1.32,0.22,1.79,0.66c0.46,0.44,0.69,1.01,0.69,1.7 c0,0.18-0.01,0.34-0.03,0.47h-3.75c0.05,0.34,0.19,0.6,0.42,0.8c0.23,0.2,0.52,0.3,0.87,0.3c0.56,0,0.96-0.22,1.18-0.65l1.07,0.46 c-0.16,0.37-0.44,0.67-0.84,0.9c-0.4,0.22-0.87,0.34-1.4,0.34c-0.77,0-1.39-0.23-1.87-0.69c-0.47-0.46-0.71-1.06-0.71-1.79 C119.99,40.71,120.23,40.11,120.71,39.64z M121.27,41h2.49c-0.05-0.3-0.19-0.55-0.41-0.75c-0.22-0.19-0.49-0.29-0.81-0.29 c-0.31,0-0.58,0.09-0.82,0.28C121.49,40.44,121.34,40.69,121.27,41z" class="st0"/><path d="M126,42.27c0.24,0.16,0.54,0.31,0.89,0.43c0.35,0.12,0.69,0.18,1.01,0.18c0.25,0,0.45-0.04,0.62-0.11 c0.17-0.08,0.25-0.19,0.25-0.34c0-0.15-0.08-0.26-0.23-0.32c-0.15-0.06-0.42-0.12-0.82-0.19l-0.17-0.03 c-0.59-0.11-1.03-0.26-1.32-0.47c-0.29-0.2-0.44-0.52-0.44-0.96c0-0.47,0.18-0.85,0.55-1.11c0.37-0.27,0.89-0.4,1.56-0.4 c0.72,0,1.39,0.14,2.01,0.41l-0.35,1.02c-0.6-0.28-1.17-0.42-1.71-0.42c-0.51,0-0.77,0.15-0.77,0.44c0,0.18,0.14,0.31,0.43,0.39 c0.1,0.03,0.28,0.06,0.55,0.1l0.09,0.02c0.68,0.13,1.17,0.29,1.48,0.48c0.31,0.2,0.47,0.53,0.47,0.99c0,0.48-0.2,0.86-0.6,1.13 c-0.4,0.28-0.94,0.41-1.63,0.41c-0.92,0-1.71-0.22-2.35-0.66L126,42.27z" class="st0"/><path d="M131.06,42.27c0.24,0.16,0.54,0.31,0.89,0.43s0.69,0.18,1.01,0.18c0.25,0,0.45-0.04,0.62-0.11 c0.17-0.08,0.25-0.19,0.25-0.34c0-0.15-0.08-0.26-0.23-0.32c-0.15-0.06-0.42-0.12-0.82-0.19l-0.17-0.03 c-0.59-0.11-1.03-0.26-1.32-0.47c-0.29-0.2-0.44-0.52-0.44-0.96c0-0.47,0.18-0.85,0.55-1.11c0.37-0.27,0.89-0.4,1.56-0.4 c0.72,0,1.39,0.14,2.01,0.41l-0.35,1.02c-0.6-0.28-1.17-0.42-1.71-0.42c-0.51,0-0.77,0.15-0.77,0.44c0,0.18,0.14,0.31,0.43,0.39 c0.1,0.03,0.28,0.06,0.55,0.1l0.09,0.02c0.68,0.13,1.17,0.29,1.48,0.48c0.31,0.2,0.47,0.53,0.47,0.99c0,0.48-0.2,0.86-0.6,1.13 c-0.4,0.28-0.94,0.41-1.63,0.41c-0.92,0-1.71-0.22-2.35-0.66L131.06,42.27z" class="st0"/></g><rect width="32.08" height="5.63" x="1.74" y=".17" class="st1"/></g></svg>