<svg xmlns="http://www.w3.org/2000/svg" xmlns:xlink="http://www.w3.org/1999/xlink" id="Layer_1" x="0" y="0" version="1.1" viewBox="0 0 148.7 42.11" style="enable-background:new 0 0 148.7 42.11" xml:space="preserve"><style type="text/css">.st0{fill:#2b3990}</style><path d="M2.64,10.56h3.7v15.1h-3.7V10.56z"/><path d="M12.91,14.78v1.29c0.72-1.1,1.79-1.54,3.1-1.54c2.64,0,4.24,1.71,4.24,4.5v6.63h-3.67v-5.98c0-1.25-0.61-1.94-1.73-1.94	c-1.06,0-1.77,0.87-1.77,2.2v5.72H9.4V14.78H12.91z"/><path d="M21.61,14.78h1.5v-2.94h3.57v2.94h2.3v2.85h-2.3v3.74c0,0.93,0.51,1.33,1.18,1.33c0.44,0,0.97-0.08,1.41-0.4v3.1	c-0.57,0.27-1.41,0.51-2.47,0.51c-2.34,0-3.8-1.41-3.8-3.93v-4.35h-1.39V14.78z"/><path d="M33.79,21.09c0.17,1.22,1.35,1.75,2.6,1.75c1.16,0,2.05-0.51,2.58-1.01l1.86,2.32c-1.44,1.29-2.89,1.75-4.71,1.75	c-3.72,0-6.1-2.47-6.1-5.68c0-3.21,2.43-5.7,5.66-5.7c3.08,0,5.22,2.03,5.22,5c0,0.57-0.11,1.22-0.21,1.56H33.79z M33.73,18.98h3.61	v-0.02c-0.04-0.93-0.8-1.52-1.75-1.52S33.79,18.01,33.73,18.98z"/><path d="M50.2,18.09c-0.17-0.08-0.46-0.13-0.82-0.13c-1.84,0-2.89,1.44-2.89,3.7v3.99h-3.67V14.78h3.65v1.86	c0.55-1.31,1.65-2.11,3.06-2.11c0.25,0,0.49,0.02,0.68,0.08V18.09z"/><path d="M50.18,14.78h3.67l2.32,6.71l2.32-6.71h3.67L57.8,25.65h-3.25L50.18,14.78z"/><path d="M65.22,9.84c1.12,0,1.98,0.8,1.98,1.9c0,1.1-0.87,1.9-1.98,1.9c-1.12,0-1.96-0.8-1.96-1.9C63.25,10.64,64.1,9.84,65.22,9.84	z M63.4,14.78h3.67v10.88H63.4V14.78z"/><path d="M72.8,21.09c0.17,1.22,1.35,1.75,2.6,1.75c1.16,0,2.05-0.51,2.58-1.01l1.86,2.32c-1.44,1.29-2.89,1.75-4.71,1.75	c-3.72,0-6.1-2.47-6.1-5.68c0-3.21,2.43-5.7,5.66-5.7c3.08,0,5.22,2.03,5.22,5c0,0.57-0.11,1.22-0.21,1.56H72.8z M72.73,18.98h3.61	v-0.02c-0.04-0.93-0.8-1.52-1.75-1.52C73.64,17.44,72.8,18.01,72.73,18.98z"/><path d="M80.34,14.78h3.51l1.88,6.69l2.09-6.69h2.58l2.09,6.69l1.88-6.69h3.51l-3.63,10.88h-3.27l-1.86-5.83l-1.86,5.83h-3.27	L80.34,14.78z"/><path d="M105.72,21.45c0-0.99-1.14-1.16-3.25-2.09c-2.13-0.93-3.82-1.96-3.82-4.39c0-2.77,2.32-4.67,5.36-4.67	c2.28,0,4.1,1.08,5.09,2.81l-2.68,2.07c-0.59-0.97-1.41-1.56-2.45-1.56c-0.82,0-1.63,0.42-1.63,1.27c0,0.8,1.22,1.14,2.66,1.75	c2.47,1.06,4.41,2.03,4.41,4.71c0,2.45-2.09,4.58-5.53,4.58c-2.28,0-4.56-1.08-5.68-3.08l2.56-2.15c0.63,0.99,1.75,1.9,3.13,1.9	C104.92,22.59,105.72,22.19,105.72,21.45z"/><path d="M113.39,14.78l2.28,6.69l2.34-6.69h3.7l-4.65,11.4c-1.25,3.04-2.77,3.95-4.86,3.95c-0.89,0-1.65-0.25-2.09-0.46v-2.98	c0.55,0.25,1.12,0.34,1.52,0.34c0.82,0,1.73-0.17,2.18-1.84l-4.2-10.41H113.39z"/><path d="M126.44,14.78v1.29c0.72-1.1,1.8-1.54,3.1-1.54c2.64,0,4.24,1.71,4.24,4.5v6.63h-3.67v-5.98c0-1.25-0.61-1.94-1.73-1.94	c-1.06,0-1.77,0.87-1.77,2.2v5.72h-3.67V14.78H126.44z"/><path d="M143.71,21.47l2.32,2.09c-1.01,1.41-2.66,2.34-4.62,2.34c-3.44,0-5.87-2.49-5.87-5.7c0-3.21,2.43-5.68,5.85-5.68	c2.01,0,3.57,0.82,4.67,2.53l-2.43,2.09c-0.51-0.95-1.22-1.41-2.13-1.41c-1.31,0-2.24,1.03-2.24,2.47c0,1.46,0.93,2.49,2.28,2.49	C142.47,22.7,143.08,22.21,143.71,21.47z"/><g><path d="M3.17,37.6c0.59,0.45,1.29,0.68,2.12,0.68c0.31,0,0.56-0.06,0.74-0.17c0.19-0.12,0.28-0.28,0.28-0.48 c0-0.08-0.01-0.15-0.04-0.21c-0.02-0.06-0.07-0.12-0.15-0.16C6.06,37.21,6,37.17,5.95,37.15c-0.05-0.02-0.14-0.05-0.27-0.08 c-0.13-0.03-0.22-0.05-0.28-0.06C5.34,37,5.23,36.98,5.07,36.96c-0.18-0.03-0.34-0.06-0.47-0.08c-0.13-0.03-0.28-0.07-0.47-0.12 c-0.19-0.05-0.34-0.12-0.47-0.2c-0.13-0.08-0.25-0.17-0.37-0.28c-0.12-0.11-0.21-0.25-0.27-0.42c-0.06-0.17-0.09-0.35-0.09-0.56 c0-0.55,0.21-0.98,0.63-1.27c0.42-0.29,0.99-0.44,1.71-0.44c0.78,0,1.51,0.18,2.18,0.54l-0.49,0.94c-0.55-0.3-1.14-0.45-1.76-0.45 c-0.33,0-0.58,0.05-0.75,0.16c-0.17,0.11-0.26,0.26-0.26,0.44c0,0.11,0.03,0.21,0.08,0.28c0.06,0.08,0.14,0.14,0.27,0.19 c0.12,0.05,0.23,0.08,0.34,0.11c0.1,0.02,0.24,0.05,0.42,0.08c0.69,0.11,1.17,0.23,1.45,0.37c0.57,0.27,0.85,0.7,0.85,1.29 c0,0.58-0.22,1.02-0.65,1.33c-0.44,0.31-1.03,0.46-1.77,0.46c-0.49,0-0.95-0.07-1.38-0.22c-0.43-0.14-0.8-0.33-1.11-0.56L3.17,37.6 z"/><path d="M8.24,33.87c0-0.2,0.07-0.37,0.21-0.51c0.14-0.14,0.31-0.21,0.52-0.21c0.2,0,0.38,0.07,0.52,0.21 c0.14,0.14,0.21,0.31,0.21,0.51c0,0.21-0.07,0.38-0.21,0.52c-0.14,0.14-0.31,0.22-0.52,0.22c-0.21,0-0.38-0.07-0.52-0.21 C8.31,34.25,8.24,34.07,8.24,33.87z M8.37,39.26v-4.18h1.21v4.18H8.37z"/><path d="M11.73,35.07v0.49c0.32-0.38,0.75-0.57,1.28-0.57c0.57,0,0.98,0.21,1.26,0.63c0.36-0.42,0.84-0.63,1.43-0.63 c0.49,0,0.89,0.15,1.2,0.45c0.31,0.3,0.46,0.69,0.46,1.18v2.64h-1.19v-2.4c0-0.25-0.07-0.45-0.21-0.6 c-0.14-0.15-0.32-0.22-0.54-0.22c-0.24,0-0.45,0.09-0.61,0.27c-0.16,0.18-0.24,0.42-0.24,0.71v2.24h-1.19v-2.37 c0-0.26-0.07-0.47-0.2-0.62c-0.13-0.16-0.31-0.23-0.54-0.23c-0.25,0-0.45,0.09-0.62,0.27c-0.16,0.18-0.24,0.42-0.24,0.72v2.24h-1.2 v-4.18H11.73z"/><path d="M18.32,35.07h1.16v0.52c0.36-0.39,0.81-0.59,1.36-0.59c0.57,0,1.05,0.21,1.43,0.62c0.38,0.41,0.57,0.93,0.57,1.56 c0,0.62-0.19,1.14-0.57,1.55c-0.38,0.41-0.86,0.62-1.43,0.62c-0.54,0-0.98-0.19-1.34-0.56v2.14h-1.17V35.07z M19.46,37.18 c0,0.33,0.11,0.6,0.32,0.82c0.21,0.22,0.48,0.33,0.79,0.33c0.31,0,0.57-0.11,0.78-0.33c0.21-0.22,0.31-0.49,0.31-0.81 c0-0.33-0.1-0.6-0.31-0.82s-0.47-0.33-0.78-0.33c-0.32,0-0.58,0.11-0.79,0.33C19.56,36.59,19.46,36.86,19.46,37.18z"/><path d="M24.82,33.43v5.83h-1.21v-5.83H24.82z"/><path d="M25.71,33.87c0-0.2,0.07-0.37,0.21-0.51c0.14-0.14,0.31-0.21,0.52-0.21c0.2,0,0.38,0.07,0.52,0.21 c0.14,0.14,0.21,0.31,0.21,0.51c0,0.21-0.07,0.38-0.21,0.52c-0.14,0.14-0.31,0.22-0.52,0.22c-0.21,0-0.38-0.07-0.52-0.21 C25.78,34.25,25.71,34.07,25.71,33.87z M25.83,39.26v-4.18h1.21v4.18H25.83z"/><path d="M28.5,35.07V34.7c0-0.48,0.15-0.85,0.44-1.13c0.3-0.27,0.71-0.41,1.23-0.41c0.4,0,0.74,0.05,1.01,0.16v1 c-0.21-0.08-0.46-0.12-0.75-0.12c-0.49,0-0.73,0.23-0.73,0.68v0.19h1.31v1.01H29.7v3.18h-1.2v-3.18h-0.78v-1.01H28.5z"/><path d="M32.41,35.07l1.24,3.17l1.1-3.17h1.21l-1.5,4.06c-0.08,0.23-0.16,0.43-0.23,0.59c-0.07,0.16-0.17,0.33-0.3,0.52 c-0.12,0.19-0.26,0.34-0.4,0.45c-0.14,0.11-0.32,0.21-0.53,0.28c-0.21,0.07-0.45,0.11-0.71,0.11c-0.3,0-0.63-0.06-0.97-0.19v-1.05 c0.3,0.14,0.58,0.21,0.85,0.21c0.23,0,0.42-0.04,0.56-0.12c0.14-0.08,0.26-0.21,0.36-0.39l-1.91-4.46H32.41z"/><path d="M36.67,39.37c-0.02,0-0.03,0-0.05,0c-0.19,0-0.35-0.07-0.48-0.2c-0.13-0.13-0.2-0.28-0.2-0.46c0-0.21,0.07-0.39,0.22-0.53 c0.14-0.14,0.32-0.21,0.53-0.21c0.23,0,0.42,0.08,0.57,0.23c0.15,0.15,0.22,0.34,0.22,0.58c0,0.32-0.13,0.66-0.39,1.03 c-0.26,0.37-0.56,0.72-0.9,1.04l-0.26-0.25C36.29,40.13,36.54,39.72,36.67,39.37z"/><path d="M40.71,34.42c0.54-0.54,1.23-0.81,2.06-0.81c0.59,0,1.12,0.15,1.58,0.44c0.46,0.29,0.8,0.69,1.01,1.18l-1.07,0.54 c-0.13-0.32-0.34-0.57-0.61-0.76c-0.27-0.19-0.59-0.28-0.94-0.28c-0.47,0-0.87,0.17-1.18,0.5c-0.32,0.34-0.48,0.75-0.48,1.25 c0,0.49,0.16,0.91,0.48,1.24c0.32,0.34,0.72,0.5,1.19,0.5c0.35,0,0.66-0.09,0.94-0.28c0.28-0.19,0.48-0.44,0.61-0.76l1.1,0.49 c-0.21,0.51-0.54,0.92-1.01,1.22c-0.47,0.3-1.01,0.45-1.62,0.45c-0.83,0-1.51-0.27-2.06-0.81c-0.55-0.54-0.82-1.23-0.82-2.05 S40.16,34.97,40.71,34.42z"/><path d="M46.45,35.61c0.42-0.42,0.96-0.62,1.63-0.62c0.66,0,1.2,0.21,1.63,0.63c0.42,0.42,0.64,0.94,0.64,1.57 c0,0.63-0.21,1.15-0.64,1.55c-0.43,0.41-0.97,0.62-1.62,0.62c-0.65,0-1.2-0.2-1.63-0.62c-0.43-0.41-0.64-0.93-0.64-1.55 C45.81,36.55,46.02,36.02,46.45,35.61z M46.96,37.17c0,0.33,0.11,0.6,0.32,0.82c0.22,0.22,0.48,0.33,0.8,0.33 c0.32,0,0.59-0.11,0.8-0.33c0.21-0.22,0.32-0.49,0.32-0.82c0-0.33-0.11-0.6-0.32-0.82c-0.21-0.22-0.48-0.33-0.8-0.33 c-0.32,0-0.59,0.11-0.81,0.33C47.06,36.57,46.96,36.84,46.96,37.17z"/><path d="M52.32,33.43v5.83h-1.21v-5.83H52.32z"/><path d="M54.54,33.43v5.83h-1.21v-5.83H54.54z"/><path d="M55.32,37.16c0-0.63,0.19-1.15,0.57-1.56c0.38-0.41,0.87-0.62,1.46-0.62c0.54,0,0.99,0.21,1.35,0.62v-0.53h1.11v4.18H58.7 v-0.52c-0.34,0.41-0.8,0.62-1.36,0.62c-0.59,0-1.07-0.2-1.45-0.62C55.51,38.32,55.32,37.8,55.32,37.16z M56.48,37.17 c0,0.33,0.11,0.6,0.32,0.81c0.21,0.22,0.47,0.33,0.79,0.33c0.32,0,0.58-0.11,0.79-0.34c0.21-0.22,0.32-0.5,0.32-0.83 c0-0.32-0.11-0.58-0.32-0.8c-0.21-0.22-0.47-0.33-0.78-0.33c-0.32,0-0.59,0.11-0.8,0.33C56.59,36.57,56.48,36.84,56.48,37.17z"/><path d="M61.99,33.4v2.18c0.35-0.38,0.8-0.57,1.34-0.57c0.57,0,1.05,0.21,1.43,0.62c0.38,0.42,0.57,0.93,0.57,1.55 c0,0.62-0.19,1.14-0.57,1.55c-0.38,0.41-0.85,0.62-1.43,0.62c-0.54,0-1-0.2-1.36-0.59v0.5h-1.16V33.4H61.99z M62.29,37.98 c0.21,0.22,0.47,0.33,0.79,0.33c0.3,0,0.56-0.11,0.76-0.33c0.2-0.22,0.31-0.49,0.31-0.81c0-0.32-0.1-0.59-0.31-0.81 c-0.21-0.22-0.46-0.33-0.77-0.33c-0.31,0-0.57,0.11-0.79,0.33c-0.21,0.22-0.32,0.49-0.32,0.81C61.97,37.5,62.08,37.77,62.29,37.98z"/><path d="M66.51,35.61c0.42-0.42,0.96-0.62,1.63-0.62c0.66,0,1.2,0.21,1.63,0.63c0.42,0.42,0.64,0.94,0.64,1.57 c0,0.63-0.21,1.15-0.64,1.55c-0.43,0.41-0.97,0.62-1.62,0.62c-0.65,0-1.2-0.2-1.63-0.62c-0.43-0.41-0.64-0.93-0.64-1.55 C65.87,36.55,66.08,36.02,66.51,35.61z M67.01,37.17c0,0.33,0.11,0.6,0.32,0.82c0.22,0.22,0.48,0.33,0.8,0.33 c0.32,0,0.59-0.11,0.8-0.33c0.21-0.22,0.32-0.49,0.32-0.82c0-0.33-0.11-0.6-0.32-0.82c-0.21-0.22-0.48-0.33-0.8-0.33 s-0.59,0.11-0.81,0.33C67.12,36.57,67.01,36.84,67.01,37.17z"/><path d="M71.17,39.26v-4.18h1.14v0.5c0.25-0.39,0.64-0.59,1.16-0.59c0.18,0,0.35,0.03,0.52,0.09l-0.01,1.16 c-0.19-0.07-0.39-0.11-0.59-0.11c-0.33,0-0.58,0.1-0.76,0.3c-0.18,0.2-0.27,0.46-0.27,0.8v2.04H71.17z"/><path d="M74.33,37.16c0-0.63,0.19-1.15,0.57-1.56c0.38-0.41,0.87-0.62,1.46-0.62c0.54,0,0.99,0.21,1.35,0.62v-0.53h1.11v4.18h-1.11 v-0.52c-0.34,0.41-0.8,0.62-1.36,0.62c-0.59,0-1.07-0.2-1.45-0.62C74.52,38.32,74.33,37.8,74.33,37.16z M75.49,37.17 c0,0.33,0.1,0.6,0.32,0.81c0.21,0.22,0.47,0.33,0.79,0.33c0.32,0,0.58-0.11,0.79-0.34c0.21-0.22,0.32-0.5,0.32-0.83 c0-0.32-0.11-0.58-0.32-0.8c-0.21-0.22-0.47-0.33-0.78-0.33c-0.32,0-0.59,0.11-0.8,0.33C75.6,36.57,75.49,36.84,75.49,37.17z"/><path d="M79.51,35.07h0.68v-1.29h1.18v1.29h1.15v1.01h-1.15v1.6c0,0.22,0.04,0.37,0.13,0.47c0.09,0.1,0.24,0.15,0.46,0.15 c0.24,0,0.48-0.04,0.7-0.13v0.98c-0.33,0.13-0.67,0.19-1.02,0.19c-0.49,0-0.85-0.12-1.09-0.37c-0.24-0.25-0.36-0.59-0.36-1.03 v-1.87h-0.68V35.07z"/><path d="M83.64,35.59c0.42-0.4,0.96-0.61,1.62-0.61c0.64,0,1.16,0.19,1.56,0.58c0.4,0.39,0.61,0.88,0.61,1.49 c0,0.16-0.01,0.3-0.02,0.42h-3.28c0.04,0.29,0.17,0.53,0.37,0.7c0.2,0.17,0.46,0.26,0.76,0.26c0.49,0,0.84-0.19,1.03-0.57l0.94,0.4 c-0.14,0.33-0.38,0.59-0.74,0.79c-0.35,0.2-0.76,0.3-1.23,0.3c-0.68,0-1.22-0.2-1.63-0.61c-0.41-0.4-0.62-0.93-0.62-1.56 C83.01,36.53,83.22,36,83.64,35.59z M84.13,36.78h2.18c-0.04-0.27-0.16-0.48-0.36-0.65c-0.19-0.17-0.43-0.25-0.71-0.25 c-0.27,0-0.51,0.08-0.71,0.25C84.32,36.29,84.19,36.51,84.13,36.78z"/><path d="M88.66,39.37c-0.02,0-0.03,0-0.05,0c-0.19,0-0.35-0.07-0.48-0.2c-0.13-0.13-0.2-0.28-0.2-0.46c0-0.21,0.07-0.39,0.22-0.53 c0.14-0.14,0.32-0.21,0.53-0.21c0.23,0,0.42,0.08,0.57,0.23c0.15,0.15,0.22,0.34,0.22,0.58c0,0.32-0.13,0.66-0.39,1.03 c-0.26,0.37-0.56,0.72-0.9,1.04l-0.26-0.25C88.28,40.13,88.53,39.72,88.66,39.37z"/><path d="M91.44,39.26l2.07-5.56h1.45l2.02,5.56h-1.3l-0.34-1.09h-2.21l-0.37,1.09H91.44z M93.43,37.14h1.59l-0.79-2.39L93.43,37.14 z"/><path d="M97.65,37.89c0.21,0.14,0.47,0.27,0.78,0.37c0.31,0.11,0.6,0.16,0.88,0.16c0.22,0,0.4-0.03,0.54-0.1 c0.15-0.07,0.22-0.17,0.22-0.3c0-0.13-0.07-0.23-0.2-0.28c-0.13-0.05-0.37-0.11-0.71-0.17l-0.15-0.02 c-0.52-0.09-0.9-0.23-1.16-0.41c-0.26-0.18-0.39-0.46-0.39-0.84c0-0.42,0.16-0.74,0.48-0.97s0.78-0.35,1.36-0.35 c0.63,0,1.22,0.12,1.76,0.36l-0.31,0.89c-0.53-0.24-1.03-0.37-1.5-0.37c-0.45,0-0.67,0.13-0.67,0.38c0,0.16,0.12,0.27,0.37,0.34 c0.09,0.02,0.25,0.05,0.48,0.09l0.07,0.02c0.59,0.11,1.03,0.25,1.3,0.42c0.27,0.17,0.41,0.46,0.41,0.86c0,0.42-0.18,0.75-0.53,0.99 c-0.35,0.24-0.83,0.36-1.43,0.36c-0.81,0-1.49-0.19-2.05-0.57L97.65,37.89z"/><path d="M102.09,37.89c0.21,0.14,0.47,0.27,0.78,0.37c0.31,0.11,0.6,0.16,0.88,0.16c0.22,0,0.4-0.03,0.54-0.1 c0.15-0.07,0.22-0.17,0.22-0.3c0-0.13-0.07-0.23-0.2-0.28c-0.13-0.05-0.37-0.11-0.71-0.17l-0.15-0.02 c-0.52-0.09-0.9-0.23-1.16-0.41c-0.26-0.18-0.39-0.46-0.39-0.84c0-0.42,0.16-0.74,0.48-0.97c0.32-0.23,0.78-0.35,1.36-0.35 c0.63,0,1.22,0.12,1.76,0.36l-0.31,0.89c-0.53-0.24-1.03-0.37-1.5-0.37c-0.45,0-0.67,0.13-0.67,0.38c0,0.16,0.12,0.27,0.37,0.34 c0.09,0.02,0.25,0.05,0.48,0.09l0.07,0.02c0.59,0.11,1.03,0.25,1.3,0.42c0.27,0.17,0.41,0.46,0.41,0.86c0,0.42-0.18,0.75-0.53,0.99 c-0.35,0.24-0.83,0.36-1.43,0.36c-0.81,0-1.49-0.19-2.05-0.57L102.09,37.89z"/><path d="M106.83,35.59c0.42-0.4,0.96-0.61,1.62-0.61c0.64,0,1.16,0.19,1.56,0.58c0.4,0.39,0.61,0.88,0.61,1.49 c0,0.16-0.01,0.3-0.02,0.42h-3.28c0.04,0.29,0.17,0.53,0.37,0.7c0.2,0.17,0.46,0.26,0.76,0.26c0.49,0,0.84-0.19,1.03-0.57l0.94,0.4 c-0.14,0.33-0.38,0.59-0.74,0.79c-0.35,0.2-0.76,0.3-1.23,0.3c-0.68,0-1.22-0.2-1.63-0.61c-0.41-0.4-0.62-0.93-0.62-1.56 C106.2,36.53,106.41,36,106.83,35.59z M107.32,36.78h2.18c-0.04-0.27-0.16-0.48-0.36-0.65c-0.19-0.17-0.43-0.25-0.71-0.25 c-0.27,0-0.51,0.08-0.71,0.25C107.52,36.29,107.38,36.51,107.32,36.78z"/><path d="M111.46,37.89c0.21,0.14,0.47,0.27,0.78,0.37c0.31,0.11,0.6,0.16,0.88,0.16c0.22,0,0.4-0.03,0.54-0.1 c0.15-0.07,0.22-0.17,0.22-0.3c0-0.13-0.07-0.23-0.2-0.28c-0.13-0.05-0.37-0.11-0.71-0.17l-0.15-0.02 c-0.52-0.09-0.9-0.23-1.16-0.41c-0.26-0.18-0.39-0.46-0.39-0.84c0-0.42,0.16-0.74,0.48-0.97s0.78-0.35,1.36-0.35 c0.63,0,1.22,0.12,1.76,0.36l-0.31,0.89c-0.53-0.24-1.03-0.37-1.5-0.37c-0.45,0-0.67,0.13-0.67,0.38c0,0.16,0.12,0.27,0.37,0.34 c0.09,0.02,0.25,0.05,0.48,0.09l0.07,0.02c0.59,0.11,1.03,0.25,1.3,0.42c0.27,0.17,0.41,0.46,0.41,0.86c0,0.42-0.18,0.75-0.53,0.99 c-0.35,0.24-0.83,0.36-1.43,0.36c-0.81,0-1.49-0.19-2.05-0.57L111.46,37.89z"/><path d="M115.89,37.89c0.21,0.14,0.47,0.27,0.78,0.37c0.31,0.11,0.6,0.16,0.88,0.16c0.22,0,0.4-0.03,0.54-0.1 c0.15-0.07,0.22-0.17,0.22-0.3c0-0.13-0.07-0.23-0.2-0.28c-0.13-0.05-0.37-0.11-0.71-0.17l-0.15-0.02 c-0.52-0.09-0.9-0.23-1.16-0.41c-0.26-0.18-0.39-0.46-0.39-0.84c0-0.42,0.16-0.74,0.48-0.97c0.32-0.23,0.78-0.35,1.36-0.35 c0.63,0,1.22,0.12,1.76,0.36l-0.31,0.89c-0.53-0.24-1.03-0.37-1.5-0.37c-0.45,0-0.67,0.13-0.67,0.38c0,0.16,0.12,0.27,0.37,0.34 c0.09,0.02,0.25,0.05,0.48,0.09l0.07,0.02c0.59,0.11,1.03,0.25,1.3,0.42c0.27,0.17,0.41,0.46,0.41,0.86c0,0.42-0.18,0.75-0.53,0.99 c-0.35,0.24-0.83,0.36-1.43,0.36c-0.81,0-1.49-0.19-2.05-0.57L115.89,37.89z"/></g><rect width="28.08" height="4.92" x="2.67" y="1.03" class="st0"/></svg>